<svg width="57" height="57" viewBox="0 0 57 57" fill="none" xmlns="http://www.w3.org/2000/svg">
<rect width="57" height="57" rx="5" fill="#0460A3"/>
<g clip-path="url(#clip0_9044_4144)">
<path d="M26.908 0.0332226C44.7463 -0.803943 58.9616 14.2828 56.7783 32.0888C55.2733 44.3617 45.6777 54.4221 33.5184 56.5559C14.325 59.9245 -2.48026 43.633 0.303091 24.3443C2.21291 11.1102 13.488 0.663312 26.908 0.0332226ZM27.8115 1.25575C6.66176 1.86701 -5.94524 25.342 5.6074 43.2591C16.0167 59.403 39.5663 59.9655 50.6942 44.2886C63.0809 26.8388 51.4042 2.63479 30.1863 1.29377L27.8111 1.25575H27.8115Z" fill="white"/>
<path d="M3.90783 32.9721L7.36247 32.7598V33.3449L3.05754 33.5579L3.00292 33.0555L3.1081 32.8901L6.35239 30.475L2.89848 30.6872L2.84497 30.1022L7.17832 29.8873L7.15322 30.558L3.90783 32.9721Z" fill="white"/>
<path d="M33.88 4.8543L33.3999 4.77716C33.273 4.56048 33.3191 4.32867 33.1597 4.11385C32.6574 3.4354 30.9542 3.67385 31.3786 4.61991C31.6883 5.31017 33.9391 5.19352 33.8228 6.6283C33.6678 8.54034 29.8859 7.92649 30.3737 5.97052L30.855 6.04693C30.9203 6.08901 30.9081 6.37471 30.9406 6.49283C31.2439 7.59022 33.5564 7.59982 33.1656 6.34001C32.9611 5.6815 30.8985 5.62244 30.7483 4.66531C30.4206 2.57756 34.2443 2.83927 33.88 4.85467V4.8543Z" fill="white"/>
<path d="M26.9718 3.4727V4.85468L29.2041 4.80116C29.1842 4.97613 29.2695 5.20646 29.1241 5.33306H26.9718L27.0246 6.82173L29.4163 6.76821V7.30011H26.44L26.3865 2.99432L29.2757 2.94891C29.4108 2.99321 29.4045 3.3878 29.2831 3.47306H26.9714L26.9718 3.4727Z" fill="white"/>
<path d="M4.55142 38.4417C4.52559 38.3059 4.36136 37.9833 4.49164 37.8884C5.36738 37.5831 6.47046 37.4562 7.3082 37.0911C8.5958 36.53 7.97396 34.5704 6.60443 34.8989L3.83252 35.677L3.64209 35.099C4.61305 34.9399 5.63974 34.4504 6.59926 34.3094C7.4071 34.1906 7.98983 34.474 8.31127 35.2396C8.63271 36.0051 8.67552 36.9198 7.964 37.4281C7.51708 37.7474 5.4792 38.2834 4.85662 38.4126C4.75624 38.4332 4.65586 38.4705 4.55179 38.4421L4.55142 38.4417Z" fill="white"/>
<path d="M53.9154 25.5841V26.1692L51.0195 26.2227C49.657 26.3191 49.5799 28.4393 51.0173 28.5629C51.9776 28.6456 53.0006 28.4389 53.9689 28.5076V29.0926C52.9496 29.0616 51.7702 29.2602 50.7593 29.1395C49.1828 28.9513 49.0625 26.2319 50.4327 25.7418C50.7992 25.6107 51.5067 25.5974 51.9204 25.5819C52.5832 25.5572 53.253 25.6048 53.9158 25.5838L53.9154 25.5841Z" fill="white"/>
<path d="M46.1567 12.5084L48.0473 12.1943C48.147 12.2002 48.5419 12.601 48.4946 12.6675L46.0497 13.1193L45.4393 15.6976C45.3116 15.5297 44.9957 15.3558 44.9828 15.1406L45.4655 13.147C45.3832 13.0728 43.6 13.5807 43.2877 13.4378C43.2165 13.4054 42.8877 13.0632 42.9682 12.9875L45.5614 12.5508L46.1039 10.1172L46.5819 10.6229L46.1567 12.5088V12.5084Z" fill="white"/>
<path d="M11.5482 9.70492C12.0456 9.64291 13.214 10.0977 12.3213 10.5336C11.7563 10.053 11.0204 10.2833 10.644 10.8747C10.4034 11.2526 10.4724 11.844 10.9632 11.9141C11.8187 12.0363 13.2 10.2708 14.1341 11.6088C15.1165 13.0156 12.3235 15.1299 11.2979 13.553L11.6386 13.2525C12.1084 13.5744 12.4398 13.701 12.9775 13.4223C13.4868 13.1584 14.1865 12.3744 13.575 11.8488C12.7889 11.1729 11.3038 13.1975 10.3111 12.243C9.36894 11.3372 10.5034 9.83522 11.5474 9.70529L11.5482 9.70492Z" fill="white"/>
<path d="M14.8647 7.5212L14.9049 7.75523L16.8527 10.6997C16.9424 10.9241 16.5963 10.9832 16.4675 11.1216L14.324 7.95972C14.2838 7.92354 14.2572 7.94901 14.22 7.96193C13.9469 8.05754 13.4726 8.54293 13.1689 8.6736C13.0453 8.74558 12.8253 8.34508 12.839 8.28787L15.6888 6.4024C15.7877 6.38653 16.0161 6.69622 15.9478 6.82098C15.8637 6.97564 15.0559 7.39017 14.8647 7.52083V7.5212Z" fill="white"/>
<path d="M3.79567 23.4639L3.70304 24.8858L7.46879 25.3184L7.40974 25.8971L3.58937 25.4782L3.42699 26.91L3.00111 26.8901L2.95166 26.5689L3.32366 23.4052L3.79567 23.4639Z" fill="white"/>
<path d="M52.9544 35.4216L51.9166 38.7171L51.4686 38.5776L51.8882 37.2938L51.8432 37.1989L48.2288 36.055L48.4159 35.4699L52.1082 36.6404L52.5075 35.364L52.6023 35.319L52.9544 35.4216Z" fill="white"/>
<path d="M24.8989 3.31396L24.9532 3.79161L23.5707 4.00422L24.2623 7.75264C24.2679 7.87556 24.252 7.81207 24.1815 7.83016C24.0398 7.8667 23.8578 7.88183 23.7095 7.88811L22.9825 4.16774L21.5816 4.37962L21.4993 3.89939L24.8986 3.31433L24.8989 3.31396Z" fill="white"/>
<path d="M7.20307 28.6142L2.84499 28.7206L2.84204 28.2215L7.07021 28.0292L7.19532 28.1167L7.20307 28.6142Z" fill="white"/>
<path d="M31.2231 51.417L29.6384 52.6196L30.2407 54.4988L28.6007 53.3365L27.0256 54.4999L27.6131 52.5694L26.0151 51.417H28.0346C28.218 50.8456 28.3527 50.1942 28.5693 49.6397C28.5911 49.584 28.5889 49.5116 28.6715 49.5035L29.2834 51.417H31.2231Z" fill="white"/>
<path d="M53.8625 30.6341C53.658 31.4373 53.8938 33.1216 53.2115 33.6771C52.7586 34.0455 52.0947 33.9647 51.6548 33.6129L51.3389 33.1319C50.9429 33.9491 49.8709 33.4165 49.1863 33.7166L49.2697 33.0729C49.7188 32.9119 50.6481 33.2039 50.9939 32.841C51.3028 32.517 51.1991 31.455 51.3072 31.0109L49.4509 30.7928L49.5048 30.2088L53.8625 30.6344V30.6341ZM53.2779 31.1652L51.7892 31.0589C51.825 31.6743 51.3138 33.1515 52.2457 33.2866C52.5649 33.3331 52.8886 33.2969 53.0576 32.992C53.1495 32.8267 53.3443 31.2291 53.2775 31.1652H53.2779Z" fill="white"/>
<path d="M5.07726 19.1002L4.33289 21.4378L5.65961 21.8084L6.29363 19.7686L6.77561 19.8469L6.13568 21.9893L7.5185 22.4459L8.23925 20.2145C8.32634 20.0986 8.55515 20.291 8.68653 20.2725L7.83625 23.1347L3.69702 21.8612L4.57166 19.0455C4.67942 18.9086 4.92299 19.1242 5.07689 19.0998L5.07726 19.1002Z" fill="white"/>
<path d="M9.16815 19.4715L5.45296 17.2881C5.43044 17.2169 5.46403 17.1575 5.4906 17.0947C5.68472 16.6403 6.46968 15.4547 6.85755 15.1664C7.73957 14.5105 8.85741 14.9612 9.59477 15.6175C11.0684 16.9286 9.86196 18.163 9.16815 19.4715ZM9.05485 18.6676C9.7184 17.6329 10.2114 16.8157 9.0268 15.9198C8.05141 15.1819 7.27974 15.2096 6.59589 16.2339C6.50769 16.3661 6.14307 16.9146 6.21614 17.0275L9.05448 18.6676H9.05485Z" fill="white"/>
<path d="M49.6014 19.2685L49.8251 19.6594C49.8258 19.7768 49.6428 19.8321 49.5564 19.8694C48.0264 20.5371 46.5764 18.7886 47.1255 17.3317C47.5219 16.279 48.9885 15.4706 50.0897 15.7766C51.1013 16.0575 51.8537 17.3878 51.4105 18.3752C51.1688 18.9134 50.9625 18.9909 50.6798 18.4254C51.2382 17.8031 51.0038 16.9194 50.351 16.472C48.9006 15.478 46.3059 18.1179 48.1921 19.2692C48.691 19.5737 49.0988 19.367 49.6014 19.2681V19.2685Z" fill="white"/>
<path d="M49.3107 24.0242C48.8984 23.6056 48.6648 22.8969 48.7058 22.3134C48.8364 20.4367 51.8253 19.5512 52.8971 21.2078C54.4164 23.5566 50.9149 25.6532 49.3107 24.0242ZM50.981 20.9218C48.4357 21.2185 48.7482 24.5233 51.2792 23.9308C53.4141 23.4311 53.1011 20.6748 50.981 20.9218Z" fill="white"/>
<path d="M18.2565 5.17359L18.8248 4.97095L18.9215 5.00897L22.03 8.33548C21.8569 8.39823 21.6104 8.56618 21.4299 8.51303C21.2779 8.46837 20.725 7.73529 20.5848 7.57509C20.4497 7.495 19.1027 8.14612 18.8495 8.21183L18.8322 9.54989L18.2561 9.79757V5.17323L18.2565 5.17359ZM20.1165 7.19269L20.0663 7.0048L18.7355 5.59882L18.7883 7.67143L20.1165 7.19232V7.19269Z" fill="white"/>
<path d="M39.2488 6.0772L37.4368 9.4218C37.3752 9.46536 36.9054 9.26345 36.9094 9.13536L38.7189 5.83579C38.7189 5.62576 37.6664 5.26956 37.5708 5.12044C37.504 5.01598 37.6586 4.70185 37.7878 4.69078L40.6833 6.2625C40.8099 6.34075 40.6276 6.68145 40.5412 6.7095C40.3575 6.76893 39.3208 6.02626 39.2488 6.07683V6.0772Z" fill="white"/>
<path d="M42.1171 12.4024C42.043 12.4656 41.5942 12.1131 41.5887 12.0064L41.9529 10.7373L40.5066 9.64696L39.3814 10.3258L39.198 10.2468L38.9297 9.98434L42.8807 7.6275C43.0191 7.76039 43.3498 7.9036 43.3402 8.11733L42.1175 12.4024H42.1171ZM42.1703 10.2228L42.7549 8.25612L41.0026 9.34576C41.3285 9.60636 41.6872 9.95222 42.0382 10.1693C42.0806 10.1955 42.0861 10.2468 42.1703 10.2228Z" fill="white"/>
<path d="M27.5988 8.59092C42.8725 7.97929 53.1438 24.3457 45.9529 37.8984C39.0248 50.9568 20.6946 52.1678 12.1017 40.112C2.87484 27.1666 11.8205 9.22286 27.5988 8.59092ZM27.2268 9.8666C13.4709 10.5993 5.25482 25.8536 12.1361 37.8452C18.8726 49.5851 35.5613 50.4699 43.4895 39.4742C52.7183 26.6749 42.9057 9.03128 27.2268 9.8666Z" fill="white"/>
<path d="M42.4968 21.4987L42.9681 21.4913L43.3932 26.1692C43.2626 26.1507 42.9633 26.2205 42.8869 26.1171C42.8319 26.0429 42.654 25.325 42.5835 25.1449C42.0325 23.7396 40.7966 22.5201 39.2233 22.3931C36.8437 22.2011 35.7506 24.5026 37.4405 26.143C39.6972 28.3333 44.8225 29.3392 43.8025 33.5678C43.1279 36.3639 39.9887 37.0258 37.5361 36.3591C37.1404 36.2514 36.2599 35.8534 35.9266 35.8523C35.4487 35.8512 35.3642 36.1967 35.255 36.5795H34.7915L34.146 31.909C34.766 31.8201 34.6424 32.0441 34.8446 32.4597C35.4923 33.7919 36.1953 34.986 37.6545 35.5493C39.0514 36.0882 41.0018 35.825 41.5583 34.247C43.0212 30.1003 35.0088 29.6157 34.7284 25.6664C34.5095 22.585 37.1541 20.9196 39.9917 21.6777C40.8154 21.8977 42.2344 22.8198 42.4968 21.4987Z" fill="white"/>
<path d="M16.9278 21.8106L16.8784 22.213C16.3233 22.2794 15.6757 22.3145 15.452 22.9124C15.3155 23.2775 15.2944 23.9744 15.2782 24.3863C15.1881 26.6454 15.2269 29.2019 15.3361 31.4561C15.4229 33.2438 15.59 35.2654 17.7667 35.6161C20.6168 36.0753 21.5859 34.0894 21.7133 31.62C21.8266 29.4197 21.8288 26.5328 21.7133 24.3332C21.6767 23.6359 21.6313 22.7548 20.9135 22.4222C20.7298 22.337 20.1758 22.255 20.1142 22.2118C20.0216 22.1469 20.0747 21.9206 20.0633 21.811H24.1552C24.1442 21.9206 24.1969 22.1469 24.1043 22.2118C24.0427 22.255 23.4887 22.3373 23.305 22.4222C22.6041 22.7471 22.544 23.5938 22.5052 24.28C22.3484 27.0735 23.0171 31.9038 21.9321 34.3375C20.591 37.3458 15.7749 37.4942 14.208 34.6564C12.7831 32.0755 13.7836 26.4892 13.4665 23.4384C13.3628 22.44 12.8318 22.3067 11.9284 22.213L11.8789 21.8106H16.9275H16.9278Z" fill="white"/>
<path d="M27.8751 13.2529L27.8729 12.7767C27.2211 12.917 27.1791 11.7484 27.5584 11.5804C27.6466 11.5413 27.8068 11.5671 27.8526 11.5025C27.9404 11.3781 27.7651 11.0083 28.036 10.8887C28.1504 10.8381 28.7652 10.8411 28.9003 10.8725C29.2147 10.9452 29.1513 11.2977 29.1505 11.5524C29.7517 11.418 29.8488 12.0695 29.7115 12.5113C29.6395 12.7435 29.3583 12.7838 29.1513 12.7749L29.1505 13.2533C29.6568 13.2082 30.1385 13.4227 30.1075 13.9971H30.4263V12.9606C30.4263 12.662 31.2386 12.6823 31.439 12.745C31.7427 12.8402 31.7139 13.2075 31.7017 13.4655C32.3642 13.5309 33.4721 13.1702 33.5647 14.127C33.5831 14.3167 33.589 14.8508 33.551 15.0221C33.3894 15.7448 32.2332 15.5009 31.7021 15.5378C31.7099 15.7825 31.7468 16.0963 31.4519 16.1645C31.2891 16.2022 30.427 16.2295 30.427 15.9899V15.0066H30.1078C30.1809 15.643 29.7325 15.8895 29.1516 15.8571V16.7607H30.4005C30.7201 16.7607 31.1157 17.2852 31.067 17.6089C31.7058 17.5528 32.2723 17.6351 32.3424 18.38L32.3406 40.3877C32.2531 41.0621 31.6707 41.2286 31.0673 41.1607C31.1375 41.4179 30.733 41.9557 30.5071 41.9557H29.152V44.3476C29.4631 44.3395 29.6982 44.4045 29.7377 44.7452C29.7938 45.2276 29.741 45.6525 29.1516 45.5698C29.2479 46.1962 28.6471 46.2265 28.1722 46.1515C27.7732 46.0884 27.9489 45.7621 27.8537 45.6196C27.8109 45.5554 27.6474 45.5805 27.5596 45.5418C27.1798 45.3742 27.223 44.2 27.8766 44.3476V42.0355L27.7969 41.9557H26.4151C26.1694 41.9557 25.838 41.4087 25.852 41.164C25.3084 41.1954 24.6898 41.1385 24.5806 40.4955L24.5799 18.3272C24.6463 17.6185 25.2619 17.5665 25.8523 17.6063C25.8206 17.2944 26.2188 16.761 26.5218 16.761H27.8769V15.8574H26.5749C26.5281 15.8574 25.9269 16.0855 25.8376 16.1298C25.2102 16.441 24.8655 17.0268 24.4492 17.5572C23.2015 15.7426 23.2624 13.4415 24.3171 11.552C24.3909 11.5372 24.385 11.5413 24.4271 11.586C24.8183 11.9994 25.1781 12.4667 25.6497 12.7963C25.7671 12.8783 26.4388 13.2529 26.5218 13.2529H27.8769H27.8751ZM26.5462 18.9931C26.5509 18.6188 26.6487 18.0873 26.0992 18.1434C25.7512 18.1788 25.6988 18.5435 25.756 18.8266L26.5458 18.9931H26.5462ZM27.7157 19.2061V18.3822C27.7157 18.2242 27.368 18.1235 27.2234 18.1523C26.8536 18.2257 26.9145 18.6908 26.9148 18.9687L26.9488 19.0525L27.7153 19.2057L27.7157 19.2061ZM28.1408 18.3291V19.3124L28.8778 19.1991C28.9512 18.6063 28.9088 17.8175 28.1408 18.3291ZM29.3099 18.3291V19.0998L30.0573 18.961C30.0606 18.5886 30.1425 18.0895 29.607 18.1438C29.5251 18.1519 29.3295 18.2611 29.3099 18.3294V18.3291ZM31.2205 18.7783C31.3593 18.2408 30.9208 17.9304 30.5057 18.3025L30.4791 18.8875L31.2201 18.7783H31.2205ZM28.8848 22.1295C28.7781 22.1037 28.1408 21.9273 28.1408 22.103V36.6404L28.8848 36.5873V22.1295ZM27.7157 22.1827L26.9787 22.2964L26.9683 36.3972L27.7153 36.5345V22.1831L27.7157 22.1827ZM29.3099 22.2358V36.4809C29.4926 36.4182 30.0167 36.4407 30.0543 36.2421L30.0573 22.3746L29.3099 22.2358ZM26.5465 22.3953L25.7464 22.5326L25.749 36.083C25.787 36.2827 26.3602 36.2982 26.5469 36.3215V22.3953H26.5465ZM30.4791 22.4484V36.2683L31.1924 36.1151L31.2264 36.0314V22.5858L30.4791 22.4484ZM28.8848 39.4575L28.1408 39.4044V40.3877C28.1408 40.6007 28.8848 40.6605 28.8848 40.3346V39.4575ZM27.7157 39.5107L26.9414 39.6665C26.8779 40.1046 26.8436 40.7052 27.4651 40.5623C27.5525 40.5424 27.7157 40.4136 27.7157 40.3342V39.5103V39.5107ZM29.3099 39.5638V40.3877C29.3099 40.6155 29.8654 40.6413 30.0049 40.4449C30.1204 40.2822 30.0233 39.8769 30.0536 39.6709L29.3099 39.5642V39.5638ZM26.5465 39.7233L25.7726 39.8794C25.6815 40.3017 25.7634 40.631 26.2561 40.5778C26.6801 40.5321 26.5211 40.0308 26.5465 39.7237V39.7233ZM30.4795 39.7765C30.4983 40.0348 30.3706 40.5044 30.7197 40.5719C31.1891 40.6631 31.3035 40.3301 31.2002 39.9319L30.4795 39.7761V39.7765Z" fill="white"/>
</g>
<defs>
<clipPath id="clip0_9044_4144">
<rect width="57" height="57" fill="white"/>
</clipPath>
</defs>
</svg>
