<svg width="96" height="96" viewBox="0 0 96 96" fill="none" xmlns="http://www.w3.org/2000/svg">
<rect width="96" height="96" rx="5.33333" fill="#0460A3"/>
<g clip-path="url(#clip0_8715_3859)">
<path d="M45.3187 0.0555169C75.362 -1.35445 99.3036 24.0547 95.6265 54.0438C93.0918 74.714 76.9308 91.6578 56.4519 95.2517C24.1262 100.925 -4.1774 73.4868 0.510347 41.0004C3.72688 18.7114 22.7165 1.11672 45.3187 0.0555169ZM46.8402 2.11451C11.2197 3.14401 -10.0132 42.6808 9.44392 72.857C26.9754 100.047 66.6379 100.994 85.3796 74.5909C106.241 45.2017 86.5755 4.4371 50.8399 2.17854L46.8396 2.11451H46.8402Z" fill="white"/>
<path d="M6.58157 55.5318L12.3999 55.1743V56.1597L5.14952 56.5184L5.05753 55.6723L5.23467 55.3938L10.6987 51.3261L4.88163 51.6836L4.7915 50.6982L12.0898 50.3364L12.0475 51.466L6.58157 55.5318Z" fill="white"/>
<path d="M57.061 8.17559L56.2524 8.04566C56.0386 7.68073 56.1162 7.29032 55.8477 6.9285C55.0018 5.78586 52.1333 6.18747 52.8481 7.78082C53.3696 8.94336 57.1605 8.74691 56.9647 11.1634C56.7036 14.3837 50.3339 13.3498 51.1556 10.0555L51.9661 10.1842C52.0762 10.2551 52.0556 10.7363 52.1103 10.9352C52.6213 12.7835 56.5159 12.7996 55.8577 10.6778C55.5133 9.56877 52.0395 9.4693 51.7865 7.85729C51.2346 4.34108 57.6745 4.78185 57.061 8.17621V8.17559Z" fill="white"/>
<path d="M45.4262 5.84896V8.17652L49.186 8.08637C49.1524 8.38105 49.296 8.76897 49.0511 8.98221H45.4262L45.5151 11.4894L49.5434 11.3993V12.2951H44.5306L44.4404 5.04326L49.3066 4.9668C49.5341 5.0414 49.5235 5.70597 49.319 5.84958H45.4256L45.4262 5.84896Z" fill="white"/>
<path d="M7.66566 64.7438C7.62215 64.5151 7.34556 63.9717 7.56497 63.8119C9.03991 63.2978 10.8977 63.084 12.3087 62.4691C14.4773 61.5242 13.4299 58.2237 11.1234 58.777L6.45488 60.0875L6.13416 59.1139C7.76946 58.846 9.49862 58.0216 11.1147 57.7842C12.4752 57.584 13.4567 58.0614 13.998 59.3508C14.5394 60.6401 14.6115 62.1807 13.4132 63.0367C12.6605 63.5745 9.22824 64.4771 8.17968 64.6947C8.01062 64.7295 7.84156 64.7923 7.66628 64.7445L7.66566 64.7438Z" fill="white"/>
<path d="M90.8051 43.0893V44.0747L85.9277 44.1648C83.633 44.3271 83.5031 47.898 85.924 48.1062C87.5413 48.2455 89.2642 47.8974 90.8952 48.013V48.9983C89.1785 48.9461 87.192 49.2806 85.4896 49.0773C82.8343 48.7602 82.6316 44.1803 84.9395 43.3548C85.5567 43.1341 86.7482 43.1117 87.445 43.0856C88.5613 43.0439 89.6894 43.1241 90.8057 43.0887L90.8051 43.0893Z" fill="white"/>
<path d="M77.7376 21.0668L80.9218 20.5377C81.0896 20.5477 81.7547 21.2228 81.6751 21.3347L77.5574 22.0957L76.5293 26.4381C76.3142 26.1552 75.7822 25.8624 75.7604 25.5L76.5734 22.1423C76.4348 22.0173 73.4315 22.8727 72.9056 22.6322C72.7857 22.5774 72.2319 22.0012 72.3674 21.8737L76.735 21.1383L77.6487 17.0396L78.4536 17.8912L77.7376 21.0674V21.0668Z" fill="white"/>
<path d="M19.4497 16.3455C20.2875 16.2411 22.2553 17.007 20.7518 17.7412C19.8002 16.9318 18.5608 17.3197 17.9268 18.3156C17.5216 18.9522 17.6378 19.9482 18.4645 20.0663C19.9052 20.2721 22.2317 17.2986 23.8049 19.5522C25.4594 21.9214 20.7555 25.4823 19.0282 22.8265L19.6019 22.3205C20.3932 22.8626 20.9513 23.0758 21.8569 22.6065C22.7147 22.162 23.8931 20.8415 22.8632 19.9562C21.5393 18.818 19.0382 22.2278 17.3662 20.6202C15.7794 19.0946 17.69 16.565 19.4484 16.3462L19.4497 16.3455Z" fill="white"/>
<path d="M25.0355 12.6675L25.1033 13.0617L28.3838 18.0208C28.5349 18.3988 27.9518 18.4982 27.7349 18.7314L24.125 13.4061C24.0572 13.3451 24.0125 13.388 23.9497 13.4098C23.4897 13.5708 22.691 14.3883 22.1795 14.6084C21.9713 14.7296 21.6008 14.0551 21.6238 13.9587L26.4235 10.7832C26.59 10.7565 26.9748 11.2781 26.8598 11.4882C26.7181 11.7487 25.3575 12.4468 25.0355 12.6669V12.6675Z" fill="white"/>
<path d="M6.39268 39.5183L6.23667 41.913L12.579 42.6416L12.4795 43.6164L6.04523 42.9108L5.77175 45.3223L5.05448 45.2887L4.97119 44.7478L5.59772 39.4194L6.39268 39.5183Z" fill="white"/>
<path d="M89.1865 59.6572L87.4387 65.2075L86.6841 64.9725L87.3909 62.8103L87.315 62.6506L81.2275 60.724L81.5427 59.7386L87.7613 61.71L88.4338 59.5602L88.5936 59.4844L89.1865 59.6572Z" fill="white"/>
<path d="M41.9348 5.58154L42.0262 6.38599L39.6979 6.74408L40.8627 13.0572C40.872 13.2642 40.8453 13.1573 40.7265 13.1878C40.4879 13.2493 40.1814 13.2748 39.9316 13.2854L38.7071 7.01948L36.3477 7.37633L36.2091 6.56752L41.9342 5.58216L41.9348 5.58154Z" fill="white"/>
<path d="M12.1315 48.1924L4.79159 48.3714L4.78662 47.5309L11.9077 47.207L12.1185 47.3544L12.1315 48.1924Z" fill="white"/>
<path d="M52.5864 86.5973L49.9175 88.6227L50.9318 91.7877L48.1697 89.83L45.5169 91.7895L46.5064 88.5382L43.8151 86.5973H47.2162C47.5251 85.6349 47.752 84.5377 48.1168 83.6039C48.1535 83.51 48.1498 83.3882 48.289 83.3745L49.3195 86.5973H52.5864Z" fill="white"/>
<path d="M90.7155 51.5941C90.3712 52.9469 90.7684 55.7836 89.6191 56.7192C88.8565 57.3396 87.7383 57.2035 86.9974 56.611L86.4654 55.801C85.7984 57.1774 83.9928 56.2803 82.8398 56.7857L82.9803 55.7015C83.7367 55.4305 85.3018 55.9222 85.8842 55.3111C86.4044 54.7653 86.2298 52.9767 86.4119 52.2288L83.2855 51.8614L83.3762 50.8779L90.7155 51.5947V51.5941ZM89.731 52.4887L87.2236 52.3097C87.2839 53.346 86.4231 55.8339 87.9925 56.0615C88.5301 56.1398 89.0753 56.0789 89.3599 55.5654C89.5147 55.2869 89.8429 52.5962 89.7304 52.4887H89.731Z" fill="white"/>
<path d="M8.55129 32.1688L7.29762 36.1059L9.5321 36.7301L10.5999 33.2947L11.4117 33.4265L10.3339 37.0347L12.6629 37.8037L13.8767 34.0457C14.0234 33.8504 14.4088 34.1743 14.6301 34.1433L13.198 38.9637L6.22668 36.819L7.69976 32.0768C7.88126 31.8462 8.29148 32.2092 8.55067 32.1682L8.55129 32.1688Z" fill="white"/>
<path d="M15.4411 32.7942L9.18397 29.117C9.14606 28.997 9.20262 28.8969 9.24737 28.7912C9.5743 28.026 10.8963 26.0291 11.5496 25.5436C13.0351 24.4389 14.9178 25.198 16.1597 26.3033C18.6415 28.5115 16.6097 30.5904 15.4411 32.7942ZM15.2503 31.4402C16.3679 29.6977 17.1983 28.3213 15.2031 26.8124C13.5603 25.5697 12.2607 25.6163 11.1089 27.3415C10.9604 27.5641 10.3463 28.4879 10.4693 28.6781L15.2497 31.4402H15.2503Z" fill="white"/>
<path d="M83.5391 32.4523L83.9157 33.1106C83.917 33.3083 83.6087 33.4016 83.4632 33.4644C80.8863 34.589 78.4442 31.6441 79.3691 29.1903C80.0366 27.4173 82.5067 26.0558 84.3614 26.5712C86.065 27.0443 87.3324 29.2848 86.5859 30.9478C86.1788 31.8542 85.8313 31.9848 85.3552 31.0324C86.2956 29.9842 85.901 28.4959 84.8014 27.7424C82.3587 26.0683 77.9886 30.5145 81.1653 32.4535C82.0057 32.9664 82.6925 32.6183 83.5391 32.4517V32.4523Z" fill="white"/>
<path d="M83.0492 40.462C82.3549 39.757 81.9615 38.5634 82.0305 37.5805C82.2505 34.4199 87.2845 32.9285 89.0895 35.7186C91.6484 39.6743 85.7511 43.2054 83.0492 40.462ZM85.8624 35.2368C81.5755 35.7366 82.102 41.3025 86.3646 40.3047C89.9603 39.4629 89.4332 34.8209 85.8624 35.2368Z" fill="white"/>
<path d="M30.7476 8.71337L31.7048 8.37207L31.8676 8.4361L37.1029 14.0387C36.8114 14.1443 36.3962 14.4272 36.0923 14.3377C35.8362 14.2625 34.9051 13.0278 34.6689 12.758C34.4415 12.6231 32.1728 13.7197 31.7464 13.8304L31.7172 16.084L30.7469 16.5011V8.71275L30.7476 8.71337ZM33.8802 12.1139L33.7957 11.7975L31.5543 9.42954L31.6432 12.9203L33.8802 12.1133V12.1139Z" fill="white"/>
<path d="M66.1033 10.2354L63.0514 15.8684C62.9476 15.9418 62.1564 15.6017 62.1633 15.386L65.2107 9.82883C65.2107 9.4751 63.4381 8.87518 63.2771 8.62402C63.1646 8.44809 63.425 7.91904 63.6425 7.90039L68.5192 10.5475C68.7324 10.6793 68.4254 11.2531 68.28 11.3003C67.9704 11.4004 66.2245 10.1496 66.1033 10.2348V10.2354Z" fill="white"/>
<path d="M70.934 20.8887C70.8091 20.995 70.0533 20.4013 70.044 20.2216L70.6574 18.0843L68.2216 16.2479L66.3265 17.3911L66.0175 17.2581L65.5657 16.8161L72.22 12.8467C72.4531 13.0705 73.01 13.3117 72.9938 13.6716L70.9346 20.8887H70.934ZM71.0235 17.2177L72.0081 13.9054L69.0569 15.7406C69.6058 16.1795 70.2099 16.762 70.801 17.1275C70.8725 17.1717 70.8818 17.2581 71.0235 17.2177Z" fill="white"/>
<path d="M46.4822 14.4689C72.2064 13.4388 89.5055 41.0034 77.3945 63.8289C65.7261 85.8219 34.8542 87.8617 20.382 67.5571C4.84194 45.7542 19.9084 15.5333 46.4822 14.4689ZM45.8557 16.6175C22.688 17.8515 8.85033 43.5429 20.4398 63.7393C31.7856 83.5118 59.8928 85.002 73.2456 66.4828C88.7888 44.9262 72.2623 15.2106 45.8557 16.6175Z" fill="white"/>
<path d="M71.5736 36.2082L72.3674 36.1958L73.0834 44.0743C72.8634 44.0432 72.3593 44.1607 72.2306 43.9867C72.138 43.8617 71.8384 42.6525 71.7197 42.3492C70.7917 39.9824 68.7101 37.9284 66.0605 37.7146C62.0527 37.3913 60.2117 41.2674 63.0578 44.0302C66.8585 47.7192 75.4907 49.4133 73.7727 56.5352C72.6365 61.2444 67.3496 62.3591 63.2187 61.2363C62.5524 61.0548 61.0694 60.3846 60.5081 60.3828C59.7032 60.3809 59.5609 60.9628 59.3769 61.6075H58.5962L57.5092 53.7414C58.5534 53.5916 58.3451 53.9689 58.6858 54.6689C59.7766 56.9126 60.9606 58.9237 63.4183 59.8724C65.7708 60.78 69.0557 60.3368 69.993 57.6791C72.4569 50.6952 58.9623 49.8789 58.49 43.2276C58.1214 38.0378 62.5754 35.2328 67.3545 36.5098C68.7418 36.8803 71.1317 38.4332 71.5736 36.2082Z" fill="white"/>
<path d="M28.51 36.7334L28.4268 37.411C27.4919 37.5229 26.4011 37.582 26.0245 38.5891C25.7945 39.2039 25.7591 40.3777 25.7317 41.0715C25.58 44.8761 25.6453 49.1819 25.8293 52.9784C25.9754 55.9892 26.2569 59.3942 29.9228 59.9847C34.7231 60.7581 36.3553 57.4135 36.5697 53.2545C36.7605 49.5487 36.7643 44.6865 36.5697 40.9819C36.5082 39.8076 36.4317 38.3236 35.2228 37.7635C34.9133 37.6199 33.9803 37.4819 33.8765 37.4092C33.7205 37.2997 33.81 36.9187 33.7908 36.734H40.6825C40.6639 36.9187 40.7528 37.2997 40.5968 37.4092C40.493 37.4819 39.56 37.6205 39.2505 37.7635C38.0701 38.3106 37.9688 39.7367 37.9036 40.8924C37.6394 45.5973 38.7657 53.7325 36.9383 57.8313C34.6796 62.8979 26.5683 63.1478 23.9292 58.3684C21.5294 54.0216 23.2144 44.6132 22.6805 39.475C22.5059 37.7934 21.6114 37.5689 20.0899 37.411L20.0066 36.7334H28.5094H28.51Z" fill="white"/>
<path d="M46.9477 22.3206L46.944 21.5186C45.8463 21.7548 45.7755 19.7866 46.4144 19.5037C46.563 19.4379 46.8327 19.4814 46.9098 19.3726C47.0578 19.1631 46.7625 18.5401 47.2187 18.3387C47.4114 18.2536 48.4469 18.2585 48.6744 18.3114C49.204 18.4338 49.0971 19.0275 49.0958 19.4565C50.1083 19.2302 50.2718 20.3275 50.0406 21.0716C49.9194 21.4627 49.4458 21.5304 49.0971 21.5155L49.0958 22.3212C49.9486 22.2453 50.7597 22.6065 50.7075 23.5739H51.2445V21.8282C51.2445 21.3253 52.6126 21.3595 52.9501 21.4651C53.4616 21.6255 53.4131 22.2441 53.3926 22.6787C54.5083 22.7887 56.3742 22.1813 56.5302 23.7927C56.5613 24.1122 56.5712 25.0118 56.5072 25.3003C56.235 26.5175 54.2877 26.1066 53.3932 26.1687C53.4063 26.5809 53.4684 27.1093 52.9718 27.2244C52.6977 27.2878 51.2458 27.3338 51.2458 26.9303V25.2742H50.7081C50.8312 26.3459 50.076 26.7612 49.0977 26.7065V28.2284H51.201C51.7393 28.2284 52.4056 29.1118 52.3235 29.657C53.3995 29.5625 54.3535 29.7011 54.4716 30.9557L54.4685 68.0213C54.3212 69.1571 53.3404 69.4375 52.3242 69.3231C52.4423 69.7564 51.761 70.6622 51.3807 70.6622H49.0983V74.6906C49.6223 74.677 50.0182 74.7864 50.0847 75.3602C50.1792 76.1727 50.0903 76.8883 49.0977 76.749C49.2599 77.804 48.248 77.855 47.4481 77.7288C46.7762 77.6225 47.072 77.0729 46.9117 76.833C46.8396 76.7248 46.5642 76.7671 46.4163 76.7018C45.7767 76.4195 45.8495 74.442 46.9502 74.6906V70.7965L46.816 70.6622H44.4889C44.0749 70.6622 43.5168 69.7409 43.5404 69.3287C42.6248 69.3815 41.5831 69.2858 41.3991 68.2028L41.3979 30.8668C41.5098 29.6731 42.5465 29.5855 43.541 29.6526C43.4876 29.1273 44.1582 28.229 44.6685 28.229H46.9508V26.7071H44.758C44.6791 26.7071 43.6666 27.0913 43.5161 27.1659C42.4595 27.69 41.879 28.6766 41.1779 29.5699C39.0764 26.5138 39.179 22.6382 40.9553 19.4559C41.0797 19.431 41.0697 19.4378 41.1406 19.5131C41.7994 20.2094 42.4054 20.9964 43.1998 21.5516C43.3974 21.6896 44.5287 22.3206 44.6685 22.3206H46.9508H46.9477ZM44.7095 31.9883C44.7176 31.3579 44.8823 30.4627 43.9568 30.5572C43.3707 30.6168 43.2824 31.2311 43.3788 31.7079L44.7089 31.9883H44.7095ZM46.6792 32.347V30.9594C46.6792 30.6933 46.0937 30.5236 45.8501 30.5721C45.2273 30.6958 45.3298 31.4791 45.3305 31.9472L45.3876 32.0884L46.6786 32.3464L46.6792 32.347ZM47.3953 30.8699V32.526L48.6365 32.3352C48.7602 31.3368 48.6887 30.0082 47.3953 30.8699ZM49.3643 30.8699V32.1679L50.623 31.9342C50.6286 31.3069 50.7666 30.4664 49.8647 30.5578C49.7267 30.5715 49.3973 30.7555 49.3643 30.8705V30.8699ZM52.5821 31.6265C52.8158 30.7213 52.0774 30.1985 51.3782 30.8251L51.3334 31.8105L52.5815 31.6265H52.5821ZM48.6483 37.2707C48.4687 37.2271 47.3953 36.93 47.3953 37.2259V61.71L48.6483 61.6205V37.2707ZM46.6792 37.3602L45.438 37.5517L45.4206 61.3003L46.6786 61.5316V37.3608L46.6792 37.3602ZM49.3643 37.4497V61.4415C49.672 61.3358 50.5546 61.3737 50.618 61.0392L50.623 37.6835L49.3643 37.4497ZM44.7101 37.7183L43.3626 37.9495L43.367 60.7713C43.431 61.1076 44.3963 61.1337 44.7108 61.1729V37.7183H44.7101ZM51.3334 37.8078V61.0834L52.5349 60.8254L52.5921 60.6843V38.0391L51.3334 37.8078ZM48.6483 66.4547L47.3953 66.3652V68.0213C47.3953 68.38 48.6483 68.4807 48.6483 67.9318V66.4547ZM46.6792 66.5442L45.3752 66.8065C45.2683 67.5445 45.2105 68.5559 46.2572 68.3154C46.4045 68.2818 46.6792 68.0648 46.6792 67.9312V66.5436V66.5442ZM49.3643 66.6337V68.0213C49.3643 68.4049 50.2998 68.4484 50.5347 68.1177C50.7293 67.8435 50.5658 67.1609 50.6168 66.814L49.3643 66.6343V66.6337ZM44.7101 66.9023L43.4068 67.1652C43.2532 67.8764 43.3912 68.431 44.221 68.3415C44.9352 68.2644 44.6673 67.4201 44.7101 66.9029V66.9023ZM51.334 66.9918C51.3657 67.427 51.1507 68.2178 51.7387 68.3315C52.5293 68.4851 52.722 67.9243 52.5479 67.2535L51.334 66.9912V66.9918Z" fill="white"/>
</g>
<defs>
<clipPath id="clip0_8715_3859">
<rect width="96" height="96" fill="white"/>
</clipPath>
</defs>
</svg>
